<?xml version="1.0" encoding="UTF-8" standalone="no"?>
<!-- Created with Inkscape (http://www.inkscape.org/) -->

<svg
   xmlns:dc="http://purl.org/dc/elements/1.1/"
   xmlns:cc="http://creativecommons.org/ns#"
   xmlns:rdf="http://www.w3.org/1999/02/22-rdf-syntax-ns#"
   xmlns:svg="http://www.w3.org/2000/svg"
   xmlns="http://www.w3.org/2000/svg"
   xmlns:sodipodi="http://sodipodi.sourceforge.net/DTD/sodipodi-0.dtd"
   xmlns:inkscape="http://www.inkscape.org/namespaces/inkscape"
   width="62.357948mm"
   height="7.8341484mm"
   viewBox="0 0 62.357948 7.8341484"
   version="1.1"
   id="svg8"
   inkscape:version="0.92.2 5c3e80d, 2017-08-06"
   sodipodi:docname="vufindspa.svg">
  <defs
     id="defs2" />
  <sodipodi:namedview
     id="base"
     pagecolor="#ffffff"
     bordercolor="#666666"
     borderopacity="1.0"
     inkscape:pageopacity="0.0"
     inkscape:pageshadow="2"
     inkscape:zoom="2.2877104"
     inkscape:cx="112.75744"
     inkscape:cy="-22.049844"
     inkscape:document-units="mm"
     inkscape:current-layer="flowRoot815"
     showgrid="false"
     fit-margin-top="0"
     fit-margin-left="0"
     fit-margin-right="0"
     fit-margin-bottom="0"
     inkscape:window-width="1440"
     inkscape:window-height="855"
     inkscape:window-x="0"
     inkscape:window-y="1"
     inkscape:window-maximized="1" />
  <metadata
     id="metadata5">
    <rdf:RDF>
      <cc:Work
         rdf:about="">
        <dc:format>image/svg+xml</dc:format>
        <dc:type
           rdf:resource="http://purl.org/dc/dcmitype/StillImage" />
        <dc:title></dc:title>
      </cc:Work>
    </rdf:RDF>
  </metadata>
  <g
     inkscape:label="Layer 1"
     inkscape:groupmode="layer"
     id="layer1"
     transform="translate(-27.996224,-138.52174)">
    <g
       aria-label="VuFindSPA"
       transform="scale(0.26458333)"
       style="font-style:normal;font-weight:normal;font-size:40px;line-height:125%;font-family:Sans;letter-spacing:0px;word-spacing:0px;fill:#000000;fill-opacity:1;stroke:none;stroke-width:1px;stroke-linecap:butt;stroke-linejoin:miter;stroke-opacity:1"
       id="flowRoot815">
      <path
         d="m 105.8125,524.03503 h 9.25781 l 6.44532,20.60547 6.34765,-20.60547 h 8.98438 l -10.625,28.63282 h -9.58985 z"
         style="font-style:normal;font-variant:normal;font-weight:normal;font-stretch:normal;font-family:'Arial Black';-inkscape-font-specification:'Arial Black, '"
         id="path844"
         inkscape:connector-curvature="0" />
      <path
         d="m 159.77734,552.66785 h -7.42187 v -3.35938 q -1.66016,2.07031 -3.35938,2.94922 -1.67968,0.87891 -4.14062,0.87891 -3.28125,0 -5.15625,-1.95313 -1.85547,-1.97266 -1.85547,-6.05469 v -13.20312 h 7.98828 v 11.40625 q 0,1.95312 0.72266,2.77344 0.72265,0.82031 2.03125,0.82031 1.42578,0 2.32422,-1.09375 0.91796,-1.09375 0.91796,-3.92578 v -9.98047 h 7.94922 z"
         style="font-style:normal;font-variant:normal;font-weight:normal;font-stretch:normal;font-family:'Arial Black';-inkscape-font-specification:'Arial Black, '"
         id="path846"
         inkscape:connector-curvature="0" />
      <path
         d="m 165.24609,524.03503 h 21.875 v 6.15235 h -12.98828 v 5 h 11.09375 v 5.78125 h -11.09375 v 11.69922 h -8.88672 z"
         style="font-style:normal;font-variant:normal;font-weight:normal;font-stretch:normal;font-family:'Arial Black';-inkscape-font-specification:'Arial Black, '"
         id="path848"
         inkscape:connector-curvature="0" />
      <path
         d="m 191.69141,524.03503 h 7.94921 v 5.41016 h -7.94921 z m 0,7.89063 h 7.94921 v 20.74219 h -7.94921 z"
         style="font-style:normal;font-variant:normal;font-weight:normal;font-stretch:normal;font-family:'Arial Black';-inkscape-font-specification:'Arial Black, '"
         id="path850"
         inkscape:connector-curvature="0" />
      <path
         d="m 204.75781,531.92566 h 7.40235 v 3.3789 q 1.66015,-2.07031 3.35937,-2.94921 1.69922,-0.89844 4.14063,-0.89844 3.30078,0 5.15625,1.97265 1.875,1.95313 1.875,6.05469 v 13.1836 h -7.98829 V 541.2616 q 0,-1.95313 -0.72265,-2.75391 -0.72266,-0.82031 -2.03125,-0.82031 -1.44531,0 -2.34375,1.09375 -0.89844,1.09375 -0.89844,3.92578 v 9.96094 h -7.94922 z"
         style="font-style:normal;font-variant:normal;font-weight:normal;font-stretch:normal;font-family:'Arial Black';-inkscape-font-specification:'Arial Black, '"
         id="path852"
         inkscape:connector-curvature="0" />
      <path
         d="m 253.3125,524.03503 v 28.63282 h -7.44141 v -3.06641 q -1.5625,1.95312 -2.85156,2.63672 -1.71875,0.89844 -3.82812,0.89844 -4.23829,0 -6.48438,-3.22266 -2.22656,-3.22266 -2.22656,-7.83203 0,-5.15625 2.46094,-7.89063 2.48046,-2.73437 6.28906,-2.73437 1.85547,0 3.35937,0.625 1.52344,0.625 2.69532,1.875 v -9.92188 z m -7.96875,18.20313 q 0,-2.44141 -1.03516,-3.63281 -1.03515,-1.21094 -2.61718,-1.21094 -1.38672,0 -2.32422,1.15234 -0.9375,1.15235 -0.9375,3.86719 0,2.53906 0.95703,3.73047 0.97656,1.17187 2.40234,1.17187 1.52344,0 2.53906,-1.1914 1.01563,-1.19141 1.01563,-3.88672 z"
         style="font-style:normal;font-variant:normal;font-weight:normal;font-stretch:normal;font-family:'Arial Black';-inkscape-font-specification:'Arial Black, '"
         id="path854"
         inkscape:connector-curvature="0" />
      <path
         d="m 257.17969,543.19519 8.41797,-0.52734 q 0.27343,2.05078 1.11328,3.125 1.36718,1.73828 3.90625,1.73828 1.89453,0 2.91015,-0.87891 1.03516,-0.89844 1.03516,-2.07031 0,-1.11328 -0.97656,-1.99219 -0.97657,-0.87891 -4.53125,-1.66016 -5.82032,-1.30859 -8.30078,-3.47656 -2.5,-2.16797 -2.5,-5.52734 0,-2.20703 1.26953,-4.16016 1.28906,-1.97265 3.84765,-3.08594 2.57813,-1.13281 7.05078,-1.13281 5.48829,0 8.35938,2.05078 2.89062,2.03125 3.4375,6.48438 l -8.33984,0.48828 q -0.33204,-1.93359 -1.40625,-2.8125 -1.05469,-0.87891 -2.92969,-0.87891 -1.54297,0 -2.32422,0.66407 -0.78125,0.64453 -0.78125,1.58203 0,0.68359 0.64453,1.23047 0.625,0.5664 2.96875,1.05468 5.80078,1.25 8.30078,2.53907 2.51953,1.26953 3.65235,3.16406 1.15234,1.89453 1.15234,4.23828 0,2.75391 -1.52344,5.07812 -1.52344,2.32422 -4.25781,3.53516 -2.73438,1.19141 -6.89453,1.19141 -7.30469,0 -10.11719,-2.8125 -2.8125,-2.8125 -3.18359,-7.14844 z"
         style="font-style:normal;font-variant:normal;font-weight:normal;font-stretch:normal;font-family:'Arial Black';-inkscape-font-specification:'Arial Black, ';fill:#303f9f;fill-opacity:1"
         id="path856"
         inkscape:connector-curvature="0" />
      <path
         d="m 287.58984,524.03503 h 14.70703 q 4.80469,0 7.1875,2.28516 2.40235,2.28516 2.40235,6.50391 0,4.33593 -2.61719,6.77734 -2.59766,2.44141 -7.94922,2.44141 h -4.84375 v 10.625 h -8.88672 z m 8.88672,12.20703 h 2.16797 q 2.55859,0 3.59375,-0.8789 1.03516,-0.89844 1.03516,-2.28516 0,-1.34765 -0.89844,-2.28515 -0.89844,-0.9375 -3.37891,-0.9375 h -2.51953 z"
         style="font-style:normal;font-variant:normal;font-weight:normal;font-stretch:normal;font-family:'Arial Black';-inkscape-font-specification:'Arial Black, ';fill:#303f9f;fill-opacity:1"
         id="path858"
         inkscape:connector-curvature="0" />
      <path
         d="m 330.83203,547.94128 h -10.07812 l -1.38672,4.72657 h -9.04297 l 10.76172,-28.63282 h 9.64843 l 10.76172,28.63282 h -9.25781 z m -1.85547,-6.1914 -3.16406,-10.29297 -3.14453,10.29297 z"
         style="font-style:normal;font-variant:normal;font-weight:normal;font-stretch:normal;font-family:'Arial Black';-inkscape-font-specification:'Arial Black, ';fill:#303f9f;fill-opacity:1"
         id="path860"
         inkscape:connector-curvature="0" />
    </g>
  </g>
</svg>
